<?xml version="1.0" encoding="UTF-8" standalone="no"?>
<svg
   viewBox="0 0 32 32"
   version="1.1"
   id="svg2876"
   sodipodi:docname="appicon2.svg"
   inkscape:version="1.2.1 (9c6d41e410, 2022-07-14)"
   inkscape:export-filename="appicon2.png"
   inkscape:export-xdpi="96"
   inkscape:export-ydpi="96"
   xmlns:inkscape="http://www.inkscape.org/namespaces/inkscape"
   xmlns:sodipodi="http://sodipodi.sourceforge.net/DTD/sodipodi-0.dtd"
   xmlns="http://www.w3.org/2000/svg"
   xmlns:svg="http://www.w3.org/2000/svg">
  <sodipodi:namedview
     id="namedview2878"
     pagecolor="#ffffff"
     bordercolor="#000000"
     borderopacity="0.25"
     inkscape:showpageshadow="2"
     inkscape:pageopacity="0.0"
     inkscape:pagecheckerboard="0"
     inkscape:deskcolor="#d1d1d1"
     showgrid="false"
     inkscape:zoom="13.078125"
     inkscape:cx="23.168459"
     inkscape:cy="16.057348"
     inkscape:window-width="1366"
     inkscape:window-height="705"
     inkscape:window-x="1912"
     inkscape:window-y="-8"
     inkscape:window-maximized="1"
     inkscape:current-layer="svg2876" />
  <defs
     id="defs2871">
    <style
       id="style2869">.cls-1{fill:#231f20;}</style>
  </defs>
  <path
     d="M 27.999955,8.5185474 H 3.9996433 c -1.016454,0.03823 -1.983998,0.978219 -1.969939,2.0004256 l -0.030061,14.932404 c -0.0044,2.183548 2,2.067595 2,2.067595 -1.282337,0 24.0003117,-4.22e-4 24.0003117,-4.22e-4 1.104568,0.0015 2,-0.895431 2,-2 V 10.558547 c 0.02241,-1.1201566 -0.879619,-2.0402236 -2,-2.0399996 z M 3.9996433,25.518972 3.9996053,10.518973 c 3.477494,0 18.8342587,-4.26e-4 23.9999907,-4.26e-4 v 14.999999"
     style="fill:#231f20"
     id="path1992"
     sodipodi:nodetypes="cccsssscccccc" />
  <path
     d="M 22,10.479958 V 7.5999582 c 0,-1.7231279 -1.396872,-3.1199995 -3.12,-3.1199995 -1.333333,0 -1.333333,1.9999995 0,1.9999995 0.618559,0 1.12,0.501441 1.12,1.12 V 10.479958 H 12 V 7.5999582 c 0,-0.6185589 0.501441,-1.12 1.12,-1.12 H 15 c 1.333333,0 1.333333,-1.9999995 0,-1.9999995 h -1.88 c -1.723128,0 -3.12,1.3968715 -3.12,3.1199995 v 2.8799998"
     style="fill:#231f20"
     id="path2058"
     sodipodi:nodetypes="cssssccssssssc" />
  <g
     id="g1304"
     transform="matrix(0.62152469,0,0,0.62152469,8.5417037,10.64164)">
    <polygon
       points="4,4 9,4 9,2 2,2 2,9 4,9 "
       id="polygon1288" />
    <polygon
       points="4,15 2,15 2,22 9,22 9,20 4,20 "
       id="polygon1290" />
    <polygon
       points="15,2 15,4 20,4 20,9 22,9 22,2 "
       id="polygon1292" />
    <polygon
       points="20,20 15,20 15,22 22,22 22,15 20,15 "
       id="polygon1294" />
    <path
       d="m 6,11 h 5 V 6 H 6 Z M 8,8 H 9 V 9 H 8 Z"
       id="path1296" />
    <path
       d="m 18,6 h -5 v 5 h 5 z M 16,9 H 15 V 8 h 1 z"
       id="path1298" />
    <path
       d="m 18,13 h -5 v 5 h 5 z m -2,3 h -1 v -1 h 1 z"
       id="path1300" />
    <path
       d="m 6,18 h 5 V 13 H 6 Z m 2,-3 h 1 v 1 H 8 Z"
       id="path1302" />
  </g>
  <path
     style="fill:#000000;stroke-width:0.108136"
     d="M 3.044672,27.227333 C 2.784218,27.09841 2.481982,26.831084 2.34179,26.605637 L 2.09584,26.21012 2.06606,18.392037 c -0.02112,-5.5448 0.0056,-7.949642 0.09205,-8.27053 0.157415,-0.5845938 0.873561,-1.3098208 1.451991,-1.4704018 0.268261,-0.07447 1.564438,-0.12021 3.417347,-0.120585 l 2.985161,-6.03e-4 0.0602,-0.795978 c 0.0808,-1.068326 0.406664,-1.792942 1.077566,-2.3961411 0.717927,-0.6454776 1.303733,-0.8089053 2.899519,-0.8089053 1.102232,0 1.298711,0.02776 1.54004,0.2175893 0.610365,0.4801133 0.421779,1.4066541 -0.328729,1.6150811 -0.222934,0.06191 -0.901399,0.112839 -1.507698,0.113171 -1.004593,5.51e-4 -1.128892,0.02342 -1.401494,0.257905 -0.264029,0.227109 -0.304237,0.347659 -0.34264,1.02729 l -0.04351,0.769988 h 4.067295 4.067296 v -0.533639 c 0,-0.293502 -0.04568,-0.653788 -0.101512,-0.800635 -0.126662,-0.333142 -0.532965,-0.720109 -0.756933,-0.720909 -0.09287,-3.35e-4 -0.351249,-0.05126 -0.574184,-0.113171 -0.758439,-0.21063 -0.938002,-1.1340235 -0.316277,-1.6264414 0.597755,-0.4734338 2.114208,0.00472 2.890226,0.9113254 0.474264,0.554072 0.696986,1.239755 0.696986,2.145783 v 0.737687 l 3.054837,6.06e-4 c 1.797952,3.56e-4 3.222896,0.04727 3.463301,0.114034 0.508261,0.141145 1.144706,0.688619 1.337816,1.150796 0.118149,0.2827698 0.146096,1.8506478 0.146096,8.1964458 0,6.816771 -0.02183,7.899047 -0.166328,8.244871 -0.224051,0.53623 -0.454607,0.777383 -0.969098,1.013638 -0.41167,0.18904 -1.032643,0.198735 -12.868161,0.200914 -12.401741,0.0023 -12.436862,0.0017 -12.892551,-0.223889 z M 28.102501,18.045867 V 10.476362 H 16.045359 3.988217 v 7.569505 7.569507 h 12.057142 12.057142 z"
     id="path2137" />
  <path
     style="fill:#d35f5f;stroke-width:0.108136"
     d="m 4.050994,18.045867 v -7.46137 H 16 27.949006 v 7.46137 7.461371 H 16 4.050994 Z m 10.164765,5.623062 v -0.648815 h -1.510932 -1.510932 l -0.03,-1.540935 -0.03,-1.540935 -0.675849,-0.03219 -0.675849,-0.03219 v 2.221944 2.221944 h 2.216784 2.216784 z M 22.325945,22.0958 v -2.221944 l -0.675849,0.03219 -0.675849,0.03219 -0.03,1.540935 -0.03,1.540935 h -1.510933 -1.510931 v 0.648815 0.648815 h 2.216784 2.216784 z m -6.812556,-1.833149 v -1.567969 h -1.622037 -1.622037 v 1.567969 1.567969 h 1.622037 1.622037 z m 4.325432,0 v -1.567969 h -1.622037 -1.622037 v 1.567969 1.567969 h 1.622037 1.622037 z M 15.513389,15.937219 V 14.36925 h -1.622037 -1.622037 v 1.567969 1.567969 h 1.622037 1.622037 z m 4.325432,0 V 14.36925 h -1.622037 -1.622037 v 1.567969 1.567969 h 1.622037 1.622037 z m -8.674929,-1.216528 0.03,-1.540935 h 1.510932 1.510932 V 12.530941 11.882127 H 11.998975 9.782191 v 2.221943 2.221944 l 0.675849,-0.03219 0.675849,-0.03219 z M 22.325945,14.09891 v -2.216783 h -2.216784 -2.216784 v 0.648814 0.648815 h 1.513901 1.513901 v 1.495879 c 0,0.822733 0.03244,1.528319 0.07209,1.567969 0.03965,0.03965 0.355946,0.07209 0.702883,0.07209 h 0.630792 z"
     id="path2778" />
</svg>
