<?xml version="1.0" encoding="UTF-8" standalone="no"?>
<svg
   viewBox="0 0 32 32"
   version="1.1"
   id="svg16"
   sodipodi:docname="appicon.svg"
   inkscape:version="1.2.1 (9c6d41e410, 2022-07-14)"
   inkscape:export-filename="appicon.png"
   inkscape:export-xdpi="96"
   inkscape:export-ydpi="96"
   xmlns:inkscape="http://www.inkscape.org/namespaces/inkscape"
   xmlns:sodipodi="http://sodipodi.sourceforge.net/DTD/sodipodi-0.dtd"
   xmlns="http://www.w3.org/2000/svg"
   xmlns:svg="http://www.w3.org/2000/svg">
  <sodipodi:namedview
     id="namedview18"
     pagecolor="#ffffff"
     bordercolor="#000000"
     borderopacity="0.25"
     inkscape:showpageshadow="2"
     inkscape:pageopacity="0.0"
     inkscape:pagecheckerboard="true"
     inkscape:deskcolor="#d1d1d1"
     showgrid="false"
     inkscape:zoom="13.078125"
     inkscape:cx="0.30585424"
     inkscape:cy="15.980884"
     inkscape:window-width="1920"
     inkscape:window-height="1017"
     inkscape:window-x="-8"
     inkscape:window-y="-8"
     inkscape:window-maximized="1"
     inkscape:current-layer="svg16" />
  <defs
     id="defs11">
    <style
       id="style9">.cls-1{fill:#231f20;}</style>
  </defs>
  <g
     id="suitcase">
    <path
       class="cls-1"
       d="M28,9.5H22V6.62A3.12,3.12,0,0,0,18.88,3.5a1,1,0,0,0,0,2A1.12,1.12,0,0,1,20,6.62V9.5H12V6.62A1.12,1.12,0,0,1,13.12,5.5H15a1,1,0,0,0,0-2H13.12A3.12,3.12,0,0,0,10,6.62V9.5H4a2,2,0,0,0-2,2v10a1,1,0,0,0,2,0l0-10H6v15H4v-1a1,1,0,0,0-2,0v1a2,2,0,0,0,2,2H28a2,2,0,0,0,2-2V11.54A2,2,0,0,0,28,9.5Zm-20,2,16,0v15l-16,0Zm20,13,0,2H26v-15h2Z"
       id="path13" />
  </g>
  <path
     style="fill:#800000;fill-opacity:1;stroke-width:0.0764636"
     d="M 3.3643967,28.333824 C 2.8598642,28.159812 2.2974463,27.598419 2.1565624,27.12819 2.0242341,26.686518 2.0365747,25.317645 2.1753033,25.049374 c 0.2426532,-0.46924 0.9158696,-0.640221 1.3289355,-0.33752 0.339327,0.248665 0.4716146,0.603857 0.4717475,1.266641 l 1.188e-4,0.592592 H 5.0083632 6.0406213 V 19.001195 11.431302 H 5.0083632 3.9761051 v 5.087283 c 0,5.608165 0.011067,5.473275 -0.4732959,5.768583 -0.4652652,0.283664 -1.0443008,0.148327 -1.3132338,-0.30694 -0.112527,-0.190494 -0.1250593,-0.742178 -0.1250593,-5.505257 0,-3.964921 0.023587,-5.372542 0.093974,-5.608274 0.057439,-0.192365 0.243238,-0.467998 0.4778976,-0.708959 C 3.2504464,9.5271876 3.3007903,9.5197133 6.9338304,9.5197133 h 3.0828956 l 0.0011,-1.5483871 c 0.0012,-1.6944071 0.08944,-2.292097 0.42199,-2.8595525 0.291667,-0.4976924 0.833745,-0.9901952 1.393321,-1.2658958 l 0.511653,-0.2520906 1.454829,-0.024582 c 1.420999,-0.02401 1.461053,-0.020396 1.722452,0.1554197 0.17412,0.1171125 0.30665,0.2920285 0.379329,0.5006464 0.103993,0.2985053 0.100502,0.3437056 -0.05056,0.6546279 -0.252531,0.519785 -0.468198,0.5872449 -1.877409,0.5872449 -1.09932,0 -1.199007,0.011958 -1.434221,0.172043 -0.558551,0.3801466 -0.569862,0.4225266 -0.598386,2.2420035 l -0.02569,1.6385222 h 4.059139 4.05914 L 20.0333,7.9330944 C 20.033223,6.5736676 20.014037,6.3089323 19.899489,6.0842885 19.712397,5.7173794 19.454729,5.5534095 18.931402,5.4682358 18.064105,5.3270796 17.677447,4.6164059 18.107048,3.953081 c 0.26971,-0.4164448 0.879999,-0.5042916 1.708041,-0.2458601 0.899646,0.2807685 1.669271,1.0479744 1.969862,1.9636358 0.142786,0.4349582 0.160091,0.6689177 0.160091,2.164461 v 1.6767897 l 3.268817,0.022919 c 3.231008,0.022654 3.272887,0.024944 3.62067,0.1980478 0.423446,0.210763 0.68276,0.4733198 0.922061,0.9335928 l 0.178894,0.344086 0.02052,7.824114 c 0.01365,5.201799 -0.0059,7.922333 -0.05839,8.117167 -0.132713,0.492859 -0.531817,0.997194 -0.994395,1.256586 l -0.42055,0.235824 -12.348865,0.01721 C 4.1830768,28.478315 3.7713876,28.474194 3.3643967,28.333824 Z M 24.009558,19.001195 V 11.431302 H 15.980884 7.9522103 v 7.569893 7.569892 h 8.0286737 8.028674 z m 4.052569,0 v -7.569893 h -1.032258 -1.032258 v 7.569893 7.569892 h 1.032258 1.032258 z"
     id="path872" />
  <path
     style="fill:#ff5555;stroke-width:0.0764636"
     d="m 8.0286738,19.001195 v -7.493429 h 7.9522102 7.95221 v 7.493429 7.493429 h -7.95221 -7.9522102 z"
     id="path3610" />
  <path
     style="fill:#ff5555;stroke-width:0.0764636"
     d="m 8.0286738,19.001195 v -7.493429 h 7.9522102 7.95221 v 7.493429 7.493429 h -7.95221 -7.9522102 z"
     id="path3612" />
  <path
     style="fill:#ff8080;stroke-width:0.0764636"
     d="m 8.0286738,19.001195 v -7.493429 h 7.9522102 7.95221 v 7.493429 7.493429 h -7.95221 -7.9522102 z"
     id="path3614" />
  <path
     style="fill:#550000;stroke-width:0.0764636"
     d="M 3.5267482,28.329598 C 3.169539,28.245259 2.6841659,27.888085 2.424288,27.518324 1.9973194,26.910822 1.9844338,25.196116 2.4041242,24.835113 c 0.260283,-0.223885 0.6605182,-0.294238 0.9317983,-0.163788 0.3748426,0.180249 0.5442553,0.531026 0.6042373,1.251102 l 0.054033,0.64866 H 5.0174071 6.0406213 V 19.001195 11.431302 H 5.0083632 3.9761051 l -0.00717,2.8865 c -0.00394,1.587574 -0.029749,3.94739 -0.057348,5.244037 l -0.050178,2.357536 -0.2497129,0.223109 C 3.1714161,22.535856 2.4225362,22.401574 2.2108673,21.8913 2.1255806,21.685698 2.1077286,20.665856 2.1140998,16.363202 2.1228338,10.46485 2.0909556,10.813452 2.6800429,10.174368 3.1972814,9.6132301 3.2967333,9.5983202 6.8904798,9.5431368 l 3.1055334,-0.047687 0.054829,-1.5744873 c 0.06089,-1.7484275 0.117995,-2.1676333 0.361805,-2.6558162 0.236656,-0.4738581 0.845064,-1.0479909 1.444172,-1.3628131 l 0.514409,-0.2703144 h 1.463433 c 1.230644,0 1.494033,0.020051 1.655809,0.1260502 0.234257,0.1534912 0.413951,0.4832181 0.413951,0.7595742 0,0.2988202 -0.273935,0.694023 -0.547057,0.7892341 -0.1304,0.045458 -0.774636,0.1044814 -1.431636,0.1311641 -0.99977,0.040604 -1.235702,0.073277 -1.446957,0.2003852 -0.495692,0.2982483 -0.509787,0.3637795 -0.584028,2.7152171 l -0.03682,1.1660693 h 4.091829 4.091828 L 20.018403,7.818399 C 19.99713,6.257217 19.982625,6.1001627 19.842294,5.9116366 19.681975,5.6962585 19.383153,5.5449722 18.813852,5.3909623 18.353699,5.2664796 17.968843,4.8778782 17.969223,4.5381123 c 3.06e-4,-0.2996761 0.226518,-0.7054794 0.46408,-0.8326184 0.283906,-0.151942 1.195118,-0.058582 1.697125,0.1738818 0.570669,0.2642597 1.227645,0.9210642 1.486191,1.4858036 0.219109,0.4785966 0.317671,1.4665864 0.324829,3.2560871 l 0.0036,0.8984469 0.363202,0.00892 c 0.199761,0.00491 1.687933,0.031019 3.307049,0.058024 2.836321,0.047307 2.955365,0.055237 3.259199,0.2171137 0.353509,0.1883429 0.651342,0.511078 0.873488,0.946518 0.14521,0.284635 0.149272,0.508129 0.149272,8.212079 0,6.546313 -0.01823,7.963108 -0.10513,8.171092 -0.14529,0.347727 -0.556092,0.799365 -0.961214,1.056763 l -0.33994,0.215985 -12.353011,-0.0078 C 9.3438011,28.394081 3.6687572,28.363126 3.5267482,28.329598 Z M 24.009558,19.001195 V 11.431302 H 15.980884 7.9522103 v 7.569893 7.569892 h 8.0286737 8.028674 z m 4.052569,0 v -7.569893 h -1.032258 -1.032258 v 7.569893 7.569892 h 1.032258 1.032258 z"
     id="path3616" />
  <rect
     style="fill:#ffffff;stroke-width:0.525543"
     id="rect3752"
     width="10.57105"
     height="10.586237"
     x="10.722269"
     y="13.799664" />
  <polygon
     points="2,9 4,9 4,4 9,4 9,2 2,2 "
     id="polygon3225"
     transform="matrix(0.52969161,0,0,0.52969161,9.6439007,12.721295)" />
  <polygon
     points="9,20 4,20 4,15 2,15 2,22 9,22 "
     id="polygon3227"
     transform="matrix(0.52969161,0,0,0.52969161,9.6439007,12.721295)" />
  <polygon
     points="22,9 22,2 15,2 15,4 20,4 20,9 "
     id="polygon3229"
     transform="matrix(0.52969161,0,0,0.52969161,9.6439007,12.721295)" />
  <polygon
     points="22,15 20,15 20,20 15,20 15,22 22,22 "
     id="polygon3231"
     transform="matrix(0.52969161,0,0,0.52969161,9.6439007,12.721295)" />
  <path
     d="m 12.82205,18.547903 h 2.648458 V 15.899445 H 12.82205 Z m 1.059383,-1.589075 h 0.529692 v 0.529692 h -0.529692 z"
     id="path3233"
     style="stroke-width:0.529692" />
  <path
     d="m 19.17835,15.899445 h -2.648459 v 2.648458 h 2.648459 z m -1.059384,1.589075 h -0.529691 v -0.529692 h 0.529691 z"
     id="path3235"
     style="stroke-width:0.529692" />
  <path
     d="m 19.17835,19.607286 h -2.648459 v 2.648458 h 2.648459 z m -1.059384,1.589075 h -0.529691 v -0.529692 h 0.529691 z"
     id="path3237"
     style="stroke-width:0.529692" />
  <path
     d="m 12.82205,22.255744 h 2.648458 V 19.607286 H 12.82205 Z m 1.059383,-1.589075 h 0.529692 v 0.529692 h -0.529692 z"
     id="path3239"
     style="stroke-width:0.529692" />
  <path
     style="fill:#000000;stroke-width:0.0764636"
     d="m 9.8603944,28.330813 c -6.1577606,-0.03743 -6.475302,-0.04612 -6.690562,-0.183005 -0.6841922,-0.435095 -0.9515029,-0.894029 -1.0089545,-1.732231 -0.057563,-0.839821 0.023702,-1.276198 0.2866235,-1.53912 0.2905045,-0.290504 0.7298998,-0.300092 1.0590739,-0.02311 0.234398,0.197233 0.3265768,0.484912 0.4340244,1.354539 l 0.044876,0.363202 h 1.027573 1.0275729 V 19.001195 11.431302 H 5.0083632 3.9761051 l -0.00384,0.860215 c -0.00211,0.473119 -0.032648,2.830059 -0.067859,5.237646 l -0.06402,4.37743 -0.180648,0.150553 C 3.3589539,22.307822 3.020839,22.390243 2.7117482,22.288234 2.1503153,22.102944 2.1792115,22.41804 2.1792115,16.481233 c 0,-3.977254 0.023602,-5.394887 0.093638,-5.62437 C 2.3982562,10.445956 3.0175056,9.8382833 3.4109611,9.7400293 3.6719339,9.674859 7.4981184,9.5353475 9.3399709,9.5238439 l 0.6613561,-0.00413 0.04452,-0.9749104 c 0.09157,-2.005224 0.170971,-2.7165079 0.349392,-3.1297611 0.22147,-0.5129646 0.960679,-1.2260876 1.611476,-1.5546085 l 0.493456,-0.2490959 1.402697,0.038441 c 1.573139,0.043112 1.713353,0.08806 1.913276,0.61334 0.09034,0.2373653 0.0866,0.3051225 -0.03049,0.5518742 -0.213558,0.4500387 -0.338807,0.4922969 -1.723117,0.5813661 -1.927041,0.1239897 -2.034209,0.2103311 -2.137554,1.722147 -0.0371,0.5426476 -0.06872,1.3049116 -0.07029,1.6939199 l -0.0028,0.707288 h 4.0908 4.090801 l -5e-4,-1.548388 C 20.032765,7.1197133 19.99624,6.292117 19.951839,6.1322232 19.858268,5.7952664 19.617449,5.6221149 18.917817,5.3887509 18.44513,5.2310853 18.103363,4.9525349 18.012355,4.650774 c -0.06211,-0.2060452 0.107661,-0.623683 0.336448,-0.827596 0.235024,-0.2094706 1.020311,-0.1900793 1.63531,0.040381 0.553487,0.2074097 1.349866,0.9539657 1.585237,1.4860611 0.183398,0.414601 0.281519,1.2544825 0.346074,2.9622896 l 0.04539,1.2007985 0.317083,0.038167 c 0.174396,0.020992 1.636422,0.056786 3.248945,0.079542 3.302444,0.046605 3.320793,0.049619 3.845052,0.6316868 0.513078,0.569654 0.487331,0.109886 0.48511,8.662627 -0.0011,4.268578 -0.02774,7.886178 -0.05918,8.039111 -0.06665,0.324172 -0.535617,0.887085 -1.012229,1.215002 l -0.330468,0.227369 -6.065077,-0.01805 c -3.335792,-0.0099 -8.974135,-0.03573 -12.5296516,-0.05735 z M 24.009558,19.001195 V 11.431302 H 15.980884 7.9522103 v 7.569893 7.569892 h 8.0286737 8.028674 z m 4.052569,0 v -7.569893 h -1.032258 -1.032258 v 7.569893 7.569892 h 1.032258 1.032258 z"
     id="path3839" />
</svg>
