<?xml version="1.0" encoding="UTF-8" standalone="no"?>
<!-- Created with Inkscape (http://www.inkscape.org/) -->

<svg
   width="32"
   height="32"
   viewBox="0 0 8.4666666 8.4666666"
   version="1.1"
   id="svg2961"
   inkscape:version="1.2.1 (9c6d41e410, 2022-07-14)"
   sodipodi:docname="appicon3.svg"
   inkscape:export-filename="appicon3.png"
   inkscape:export-xdpi="96"
   inkscape:export-ydpi="96"
   xmlns:inkscape="http://www.inkscape.org/namespaces/inkscape"
   xmlns:sodipodi="http://sodipodi.sourceforge.net/DTD/sodipodi-0.dtd"
   xmlns="http://www.w3.org/2000/svg"
   xmlns:svg="http://www.w3.org/2000/svg">
  <sodipodi:namedview
     id="namedview2963"
     pagecolor="#ffffff"
     bordercolor="#000000"
     borderopacity="0.25"
     inkscape:showpageshadow="2"
     inkscape:pageopacity="0.0"
     inkscape:pagecheckerboard="0"
     inkscape:deskcolor="#d1d1d1"
     inkscape:document-units="mm"
     showgrid="false"
     inkscape:zoom="25.4375"
     inkscape:cx="7.9410319"
     inkscape:cy="16"
     inkscape:window-width="1920"
     inkscape:window-height="1017"
     inkscape:window-x="-8"
     inkscape:window-y="-8"
     inkscape:window-maximized="1"
     inkscape:current-layer="g2981" />
  <defs
     id="defs2958" />
  <g
     inkscape:label="Layer 1"
     inkscape:groupmode="layer"
     id="layer1">
    <g
       id="g2981"
       transform="matrix(0.26458333,0,0,0.26458333,0.95432027,1.1623465)">
      <polygon
         points="4,4 9,4 9,2 2,2 2,9 4,9 "
         id="polygon2965" />
      <polygon
         points="4,15 2,15 2,22 9,22 9,20 4,20 "
         id="polygon2967" />
      <polygon
         points="15,2 15,4 20,4 20,9 22,9 22,2 "
         id="polygon2969" />
      <polygon
         points="20,20 15,20 15,22 22,22 22,15 20,15 "
         id="polygon2971" />
      <path
         d="M 6,8.8771499 H 8.8771499 V 6 H 6 Z m 1.1508599,-1.72629 h 0.57543 v 0.57543 h -0.57543 z"
         id="path2973"
         style="stroke-width:0.57543" />
      <path
         d="M 18,6 H 15.083538 V 8.9164619 H 18 Z M 16.833415,7.7498771 H 16.250123 V 7.1665848 h 0.583292 z"
         id="path2975"
         style="stroke-width:0.583292" />
      <path
         d="M 6,18 H 8.995086 V 15.004914 H 6 Z m 1.1980344,-1.797052 h 0.5990172 v 0.599018 H 7.1980344 Z"
         id="path2979"
         style="stroke-width:0.599017" />
      <path
         d="m 17.673791,12.663888 h -6.512298 c -0.275808,0.01037 -0.538343,0.265433 -0.534528,0.5428 l -0.0081,4.051792 c -0.0012,0.592489 0.542686,0.561026 0.542686,0.561026 -0.347952,0 6.512298,-1.14e-4 6.512298,-1.14e-4 0.299715,4.07e-4 0.542683,-0.242969 0.542683,-0.542686 v -4.05928 c 0.0061,-0.303945 -0.238676,-0.553599 -0.542683,-0.553538 z m -6.512298,4.612933 -10e-6,-4.070133 c 0.94359,0 5.110529,-1.15e-4 6.512211,-1.15e-4 v 4.070133"
         style="fill:#231f20;stroke-width:0.271343"
         id="path1992"
         sodipodi:nodetypes="cccsssscccccc" />
      <path
         d="m 16.053428,13.196102 v -0.781465 c 0,-0.467558 -0.379031,-0.846588 -0.846589,-0.846588 -0.361789,0 -0.361789,0.542685 0,0.542685 0.167841,0 0.303904,0.136061 0.303904,0.303903 v 0.781465 h -2.170738 v -0.781465 c 0,-0.167842 0.136063,-0.303903 0.303904,-0.303903 h 0.510123 c 0.36179,0 0.36179,-0.542685 0,-0.542685 h -0.510123 c -0.467558,0 -0.846588,0.37903 -0.846588,0.846588 v 0.781465"
         style="fill:#231f20;stroke-width:0.271343"
         id="path2058"
         sodipodi:nodetypes="cssssccssssssc" />
      <path
         style="fill:#000000;stroke-width:0.0293419"
         d="m 10.901966,17.740371 c -0.07067,-0.03498 -0.152682,-0.107518 -0.190722,-0.168692 l -0.06674,-0.10732 -0.008,-2.121376 c -0.0058,-1.504538 0.0016,-2.157074 0.02497,-2.244144 0.04271,-0.158625 0.237034,-0.355409 0.393988,-0.398982 0.07279,-0.0202 0.424498,-0.03261 0.927269,-0.03272 l 0.810001,-1.63e-4 0.01633,-0.215982 c 0.02193,-0.289883 0.110345,-0.486501 0.292388,-0.650174 0.194804,-0.175146 0.353758,-0.219491 0.786762,-0.219491 0.299083,0 0.352396,0.0075 0.417878,0.05904 0.165619,0.130276 0.114448,0.381685 -0.08919,0.43824 -0.0605,0.0168 -0.244588,0.03062 -0.409103,0.03071 -0.272587,1.5e-4 -0.306314,0.0063 -0.380283,0.06998 -0.07165,0.06162 -0.08255,0.09433 -0.09297,0.278747 l -0.01181,0.208929 h 1.103629 1.103628 v -0.144798 c 0,-0.07963 -0.01239,-0.177401 -0.02754,-0.217246 -0.03437,-0.09039 -0.144616,-0.195397 -0.205388,-0.195613 -0.02519,-9.1e-5 -0.09531,-0.01391 -0.155801,-0.03071 -0.205796,-0.05715 -0.254519,-0.307709 -0.08582,-0.441322 0.162196,-0.128464 0.573673,0.0013 0.784241,0.247281 0.128686,0.150342 0.189121,0.336397 0.189121,0.58224 v 0.200166 l 0.828906,1.65e-4 c 0.48786,9.7e-5 0.874507,0.01283 0.939741,0.03095 0.137911,0.0383 0.310605,0.18685 0.363004,0.312259 0.03206,0.07672 0.03964,0.502159 0.03964,2.224042 0,1.849677 -0.0059,2.143345 -0.04514,2.237181 -0.06079,0.145502 -0.123353,0.210937 -0.262956,0.275043 -0.111704,0.05129 -0.2802,0.05393 -3.491676,0.05452 -3.365115,6.31e-4 -3.374645,4.61e-4 -3.498292,-0.06075 z m 6.799247,-2.491319 v -2.053926 h -3.271612 -3.271612 v 2.053926 2.053927 h 3.271612 3.271612 z"
         id="path2137" />
      <path
         style="fill:#d35f5f;stroke-width:0.0293419"
         d="m 11.187332,15.249052 v -2.024585 h 3.242269 3.242269 v 2.024585 2.024585 h -3.242269 -3.242269 z"
         id="path3066" />
    </g>
  </g>
</svg>
